<svg xmlns="http://www.w3.org/2000/svg" xmlns:xlink="http://www.w3.org/1999/xlink" id="Layer_1" data-name="Layer 1" width="10.07in" height="7.09in" viewBox="0 0 724.83 510.26"><defs><style>.cls-1,.cls-11,.cls-37,.cls-45,.cls-46,.cls-49,.cls-51,.cls-57,.cls-63,.cls-71,.cls-74,.cls-75,.cls-8{fill:none;}.cls-2{fill:#dbeded;}.cls-3{fill:#d5e3e4;}.cls-4{fill:#cddbda;}.cls-5{fill:#cad6d5;}.cls-6{fill:#bd773d;}.cls-7{fill:#edad53;}.cls-8{stroke:#727083;stroke-width:3.63px;}.cls-11,.cls-37,.cls-45,.cls-46,.cls-49,.cls-51,.cls-57,.cls-63,.cls-74,.cls-75,.cls-8{stroke-miterlimit:10;}.cls-9{fill:#727083;}.cls-10{fill:#4d4d5c;}.cls-11{stroke:#e03a3a;stroke-width:1.85px;}.cls-12{fill:#f5af97;}.cls-13{fill:#fff;}.cls-14{fill:#212254;}.cls-15{fill:#a3a6c6;}.cls-16{fill:#2e2f3d;}.cls-17{fill:#315992;}.cls-18{fill:#eeeff1;}.cls-19{fill:#e03a3a;}.cls-20{fill:#a09cae;}.cls-21{fill:#7998ce;}.cls-22{fill:#c9c9ce;}.cls-23{fill:#2e3a6a;}.cls-24,.cls-26{fill:#807d8a;}.cls-25{fill:#e2e2e2;}.cls-26{opacity:0.37;}.cls-27{fill:#12153f;}.cls-28{fill:#767488;}.cls-29{fill:#bab5c8;}.cls-30{fill:#c25644;}.cls-31{fill:#e98d5c;}.cls-32{fill:#f26a3a;}.cls-33{fill:#f7914a;}.cls-34{fill:#171725;}.cls-35{fill:#2a245f;}.cls-36{fill:#11112c;}.cls-37,.cls-45{stroke:#12153f;}.cls-37,.cls-71,.cls-74,.cls-75{stroke-linecap:round;}.cls-37{stroke-width:0.84px;}.cls-38{clip-path:url(#clip-path);}.cls-39{fill:#141230;}.cls-40{fill:#11143e;}.cls-41{fill:#fbcbc3;}.cls-42{fill:#fcceb9;}.cls-43{fill:#cccfd1;}.cls-44{fill:#5166a1;}.cls-45,.cls-46{stroke-width:1.9px;}.cls-46{stroke:#fff;}.cls-47{fill:#151a45;}.cls-48{fill:#212f5e;}.cls-49{stroke:#385f9a;}.cls-49,.cls-51,.cls-57,.cls-63{stroke-width:2.29px;}.cls-50{fill:#3b475e;}.cls-51{stroke:#151a45;}.cls-52{fill:#b46731;}.cls-53{fill:url(#linear-gradient);}.cls-54{fill:#28376a;}.cls-55{fill:#ffd74c;}.cls-56{fill:#eb4140;}.cls-57{stroke:#afbf36;}.cls-58{fill:#007081;}.cls-59{fill:#008492;}.cls-60{fill:#295573;}.cls-61{fill:#09677c;}.cls-62{fill:#c1bed2;}.cls-63{stroke:#eb4140;}.cls-64{fill:#8ccfd7;}.cls-65{fill:#b2afc2;}.cls-66{fill:#eb9646;}.cls-67{fill:#5f5e71;}.cls-68{fill:#d93938;}.cls-69{fill:#79c146;}.cls-70{fill:url(#linear-gradient-2);}.cls-71{stroke:#8eaedb;stroke-linejoin:round;stroke-width:2.72px;}.cls-72{fill:#8eaedb;}.cls-73{fill:#591239;}.cls-74,.cls-75{stroke:#11143e;}.cls-74{stroke-width:0.88px;}.cls-75{stroke-width:0.87px;}.cls-76{fill:#f3a892;}.cls-77{fill:#fac4bd;}.cls-78{fill:#fbc7b1;}.cls-79{fill:#11122e;}.cls-80{fill:#f89744;}.cls-81{fill:#f2653e;}.cls-82,.cls-85{fill:#2d3865;}.cls-83{fill:#f04d3a;}.cls-84{fill:#c3c2c7;}.cls-85{opacity:0.6;}.cls-86{fill:#345961;}</style><clipPath id="clip-path" transform="translate(-68.63 -31.11)"><path class="cls-1" d="M213.36,521.39c2-33.93,1.48-65.3-1.17-71.65-2.71-3.94-19-13.65-35-20.84L172,422.84l17.83-12c11.25,5,34.54,16,41.47,27.9,2.92,5,5.73,14.81,4.36,49.41-.72,18.12-1.6,32.31-1.6,32.31Z"></path></clipPath><linearGradient id="linear-gradient" x1="353.45" y1="239.82" x2="495.55" y2="239.82" gradientUnits="userSpaceOnUse"><stop offset="0" stop-color="#8dc63f"></stop><stop offset="1" stop-color="#f7941d"></stop></linearGradient><linearGradient id="linear-gradient-2" x1="444.42" y1="158.86" x2="532.67" y2="158.86" gradientUnits="userSpaceOnUse"><stop offset="0" stop-color="#d7df23"></stop><stop offset="1" stop-color="#f7941d"></stop></linearGradient></defs><title>Electronics and Iot based Project</title><path class="cls-2" d="M108.08,538.44c1.54-.24-28.38-31.78-35.78-90C64.86,389.9,37.62,107.91,387.42,36.31c185-37.86,211.11,140.93,256.26,217,38.92,65.59,167.37,128.13,147.75,203.16s-34.63,82-34.63,82Z" transform="translate(-68.63 -31.11)"></path><path class="cls-3" d="M408.19,121.47C428.11,77.71,554,52.23,543.24,133c-8.09,60.9,88.31,101.22,49.35,153.92s-178.93,36.41-164.78-28.1C441.38,197,386.15,166.51,408.19,121.47Z" transform="translate(-68.63 -31.11)"></path><path class="cls-4" d="M346.92,156.35S378.47,148,395.4,176s33,72.93,24.24,101.58-86.57,65.8-85.42,17.32S303.06,179.44,346.92,156.35Z" transform="translate(-68.63 -31.11)"></path><path class="cls-5" d="M140.43,537.71s-37.29-24.42-29.57-83.57S167.43,348.71,253.57,323s70.72,88.71,172.29,29.57,450,50.14,312.43,185.14Z" transform="translate(-68.63 -31.11)"></path><ellipse class="cls-4" cx="102.36" cy="233.75" rx="51.37" ry="50.21"></ellipse><path class="cls-6" d="M611.13,392.86l-10.94-8s-11.8,8.42-11.53,23.75c0,1.26-1.87.27-2.18,1.28-.4,1.29,5.12,3.83,6.39,4.19a5.63,5.63,0,0,0,6.43-2.47l-.08-2.86,2.64-1.19.19-3.09,2.52-1.21.27-2.93,2.49-1.44,1.45-2.29Z" transform="translate(-68.63 -31.11)"></path><path class="cls-7" d="M595.79,383.74s-11.8,8.42-11.53,23.75a5.77,5.77,0,0,0,10.64,3l-.07-2.86,2.63-1.19.19-3.08,2.53-1.22.27-2.93,2.49-1.44,1.44-2.29,2.36-3.73Z" transform="translate(-68.63 -31.11)"></path><path class="cls-6" d="M376.92,157.18l-12.52,5.21s-9.49-11-5.62-25.79c.32-1.22-4.07-2.47-4.14-3.53-.08-1.35,8.2-.75,9.52-.8a5.65,5.65,0,0,1,5.67,3.91l-.75,2.77,2.29,1.78-.55,3,2.17,1.77-.43,2.91,2.08,2,.87,2.57Z" transform="translate(-68.63 -31.11)"></path><path class="cls-7" d="M356.76,162.39s-9.48-11-5.61-25.79a5.77,5.77,0,0,1,11.05-.42l-.75,2.77,2.28,1.78-.54,3,2.17,1.77-.43,2.91,2.08,2,.87,2.57,1.41,4.17Z" transform="translate(-68.63 -31.11)"></path><line class="cls-8" x1="33.44" y1="507.47" x2="700.83" y2="507.47"></line><rect class="cls-9" x="412.47" y="157.94" width="6.3" height="38.97"></rect><rect class="cls-9" x="430.24" y="157.94" width="6.3" height="38.97"></rect><rect class="cls-10" x="412.47" y="157.94" width="6.3" height="10.34"></rect><rect class="cls-10" x="430.24" y="157.94" width="6.3" height="10.34"></rect><path class="cls-11" d="M359,377.79c0,1.09,6.78,23.15,12.32,41,4.24,13.65,16.52,23.74,30.89,23.74s25-13.35,26.11-31.7l2.73-45a50.45,50.45,0,0,1,17-34.8h0" transform="translate(-68.63 -31.11)"></path><rect class="cls-12" x="241.91" y="372.1" width="17.44" height="3.66" rx="1.81" transform="translate(319.89 771.33) rotate(-164)"></rect><rect class="cls-12" x="245.62" y="376.11" width="14.72" height="3.66" rx="1.81" transform="translate(323.38 779.85) rotate(-164)"></rect><rect class="cls-12" x="242.56" y="378.86" width="16.76" height="3.66" rx="1.81" transform="translate(318.61 784.68) rotate(-164)"></rect><path class="cls-12" d="M233.62,381.58l13.55,2.7a1.82,1.82,0,0,0,2.13-1.43v0a1.82,1.82,0,0,0-1.43-2.13L234.33,378a1.81,1.81,0,0,0-2.13,1.42v0A1.83,1.83,0,0,0,233.62,381.58Z" transform="translate(-68.63 -31.11)"></path><path class="cls-12" d="M253.58,373c-.13-.05-1.64-.78-3.26-1.57a19.58,19.58,0,0,0-9-2l-6,.11s-1.14,9.92-.73,9.81,13.16,2.2,13.16,2.2Z" transform="translate(-68.63 -31.11)"></path><rect class="cls-13" x="163.07" y="337.47" width="5.71" height="15.29"></rect><path class="cls-14" d="M203.66,385.63c-11.72,0-16.6-5.43-20.64-14.17l-.38-.84-10.18-43.1,17.88-4.22,9.74,41.26a15.58,15.58,0,0,0,1.43,2.54,12.06,12.06,0,0,0,2.35.15L234,367l.18,18.38-30.11.29Z" transform="translate(-68.63 -31.11)"></path><path class="cls-15" d="M321.57,389.09H248.38l19.52-70.43a4.7,4.7,0,0,1,4.53-3.44H341a4.7,4.7,0,0,1,4.54,6L328.1,384.13A6.78,6.78,0,0,1,321.57,389.09Z" transform="translate(-68.63 -31.11)"></path><path class="cls-16" d="M317.49,387.51H244.3l19.51-70.43a4.71,4.71,0,0,1,4.54-3.45h68.57a4.71,4.71,0,0,1,4.54,6l-17.45,63A6.76,6.76,0,0,1,317.49,387.51Z" transform="translate(-68.63 -31.11)"></path><path class="cls-17" d="M337.51,322.36l-17.23,62H247.74l1-3.6L265.61,320a4.36,4.36,0,0,1,4.2-3.19h63.5A4.36,4.36,0,0,1,337.51,322.36Z" transform="translate(-68.63 -31.11)"></path><polygon class="cls-18" points="226.15 292.7 203.82 292.7 204.32 291.13 226.65 291.13 226.15 292.7"></polygon><polygon class="cls-19" points="246.4 292.7 235.83 292.7 236.33 291.13 246.9 291.13 246.4 292.7"></polygon><polygon class="cls-20" points="261.67 292.7 251.09 292.7 251.59 291.13 262.16 291.13 261.67 292.7"></polygon><polygon class="cls-21" points="249.84 292.7 247.34 292.7 247.84 291.13 250.34 291.13 249.84 292.7"></polygon><polygon class="cls-20" points="234.61 292.7 227.2 292.7 227.69 291.13 235.1 291.13 234.61 292.7"></polygon><polygon class="cls-21" points="213.42 332.89 191.09 332.89 191.59 331.32 213.92 331.32 213.42 332.89"></polygon><polygon class="cls-20" points="233.68 332.89 223.11 332.89 223.6 331.32 234.18 331.32 233.68 332.89"></polygon><polygon class="cls-7" points="248.94 332.89 238.37 332.89 238.87 331.32 249.44 331.32 248.94 332.89"></polygon><polygon class="cls-21" points="237.12 332.89 234.62 332.89 235.12 331.32 237.62 331.32 237.12 332.89"></polygon><polygon class="cls-20" points="221.88 332.89 214.47 332.89 214.97 331.32 222.38 331.32 221.88 332.89"></polygon><polygon class="cls-22" points="210.6 319.49 221.17 319.49 221.67 317.92 211.1 317.92 210.6 319.49"></polygon><polygon class="cls-7" points="195.34 319.49 205.91 319.49 206.41 317.92 195.84 317.92 195.34 319.49"></polygon><polygon class="cls-21" points="207.16 319.49 209.66 319.49 210.16 317.92 207.66 317.92 207.16 319.49"></polygon><polygon class="cls-19" points="210.07 299.4 201.7 299.4 202.2 297.83 210.57 297.83 210.07 299.4"></polygon><polygon class="cls-21" points="230.33 299.4 226.73 299.4 227.23 297.83 230.82 297.83 230.33 299.4"></polygon><polygon class="cls-19" points="259.55 299.4 242 299.4 242.49 297.83 260.04 297.83 259.55 299.4"></polygon><polygon class="cls-21" points="240.75 299.4 231.27 299.4 231.76 297.83 241.24 297.83 240.75 299.4"></polygon><polygon class="cls-21" points="225.51 299.4 211.12 299.4 211.62 297.83 226 297.83 225.51 299.4"></polygon><polygon class="cls-23" points="197.35 339.59 188.97 339.59 189.47 338.02 197.84 338.02 197.35 339.59"></polygon><polygon class="cls-23" points="217.6 339.59 214.01 339.59 214.5 338.02 218.1 338.02 217.6 339.59"></polygon><polygon class="cls-21" points="246.82 339.59 229.27 339.59 229.77 338.02 247.32 338.02 246.82 339.59"></polygon><polygon class="cls-21" points="228.02 339.59 218.54 339.59 219.04 338.02 228.52 338.02 228.02 339.59"></polygon><polygon class="cls-21" points="212.78 339.59 198.39 339.59 198.89 338.02 213.28 338.02 212.78 339.59"></polygon><polygon class="cls-18" points="201.59 326.19 193.22 326.19 193.71 324.62 202.09 324.62 201.59 326.19"></polygon><polygon class="cls-21" points="221.84 326.19 218.25 326.19 218.75 324.62 222.34 324.62 221.84 326.19"></polygon><polygon class="cls-20" points="251.06 326.19 233.51 326.19 234.01 324.62 251.56 324.62 251.06 326.19"></polygon><polygon class="cls-21" points="232.26 326.19 222.78 326.19 223.28 324.62 232.76 324.62 232.26 326.19"></polygon><polygon class="cls-19" points="217.03 326.19 202.64 326.19 203.13 324.62 217.52 324.62 217.03 326.19"></polygon><polygon class="cls-22" points="207.95 306.1 199.58 306.1 200.08 304.53 208.45 304.53 207.95 306.1"></polygon><polygon class="cls-22" points="221.62 306.1 213.25 306.1 213.74 304.53 222.12 304.53 221.62 306.1"></polygon><polygon class="cls-21" points="255.1 306.1 240.71 306.1 241.21 304.53 255.6 304.53 255.1 306.1"></polygon><polygon class="cls-21" points="197.46 312.8 211.85 312.8 212.34 311.23 197.96 311.23 197.46 312.8"></polygon><polygon class="cls-21" points="219.63 312.8 234.02 312.8 234.52 311.23 220.13 311.23 219.63 312.8"></polygon><polygon class="cls-18" points="238.97 312.8 253.36 312.8 253.85 311.23 239.47 311.23 238.97 312.8"></polygon><path class="cls-24" d="M284.17,387.6H195.09a3.8,3.8,0,0,1-3.79-3.78h0a3.81,3.81,0,0,1,3.79-3.79h89.08a3.81,3.81,0,0,1,3.79,3.79h0A3.8,3.8,0,0,1,284.17,387.6Z" transform="translate(-68.63 -31.11)"></path><path class="cls-25" d="M317.94,387.37H266.38a3.79,3.79,0,0,1-3.78-3.79h0a3.79,3.79,0,0,1,3.78-3.78h51.56a3.8,3.8,0,0,1,3.79,3.78h0A3.8,3.8,0,0,1,317.94,387.37Z" transform="translate(-68.63 -31.11)"></path><rect class="cls-26" x="214.4" y="351.29" width="6.57" height="3.68"></rect><rect class="cls-26" x="224.38" y="351.29" width="6.57" height="3.68"></rect><rect class="cls-27" x="226.18" y="351.19" width="6.79" height="2.21"></rect><rect class="cls-13" x="215.87" y="351.19" width="5.34" height="2.21"></rect><rect class="cls-28" x="315.78" y="433.34" width="48.88" height="9.84" transform="translate(611.82 845.4) rotate(180)"></rect><rect class="cls-28" x="288.17" y="368.77" width="11.12" height="137.29"></rect><rect class="cls-29" x="243.53" y="367.94" width="11.12" height="137.82"></rect><rect class="cls-28" x="243.53" y="360.2" width="11.12" height="60.66"></rect><path class="cls-30" d="M158.07,356.25H304.44a4.35,4.35,0,0,1,4.35,4.35v8.06a0,0,0,0,1,0,0H153.72a0,0,0,0,1,0,0V360.6A4.35,4.35,0,0,1,158.07,356.25Z"></path><path class="cls-31" d="M332.22,391.61v8.16h-219v-8.16a4.24,4.24,0,0,1,4.24-4.24H328A4.24,4.24,0,0,1,332.22,391.61Z" transform="translate(-68.63 -31.11)"></path><polygon class="cls-30" points="153.2 356.25 146.82 368.66 106.78 368.66 106.78 356.25 153.2 356.25"></polygon><rect class="cls-27" x="123.48" y="432.51" width="53.36" height="9.84" transform="translate(231.69 843.74) rotate(180)"></rect><rect class="cls-28" x="100.34" y="367.94" width="11.12" height="137.86"></rect><rect class="cls-29" x="53.21" y="367.94" width="11.12" height="137.29"></rect><path class="cls-32" d="M200,444.36,123.5,450.1,102.27,342.32l51.4-.18a30.39,30.39,0,0,1,29.84,24.1Z" transform="translate(-68.63 -31.11)"></path><rect class="cls-33" x="53.92" y="389.16" width="110.59" height="15.42" rx="7.63" transform="translate(419.28 204.44) rotate(82.31)"></rect><rect class="cls-29" x="82.91" y="426.86" width="8.97" height="52.89"></rect><path class="cls-34" d="M160.5,461.06V473l-9-3.47v-8.09C153.78,461.34,158.1,461.16,160.5,461.06Z" transform="translate(-68.63 -31.11)"></path><rect class="cls-34" x="64.09" y="423.13" width="48.08" height="8.01" rx="3.97"></rect><rect class="cls-32" x="71.7" y="406.3" width="66.09" height="20.04" rx="9.92"></rect><rect class="cls-33" x="40.45" y="406.56" width="56.88" height="20.04" rx="9.92"></rect><path class="cls-27" d="M194,528.5h-5.61a12.16,12.16,0,0,0-12.15-12.15H135.39a12.16,12.16,0,0,0-12.15,12.15h-5.61a17.78,17.78,0,0,1,17.76-17.76h40.87A17.78,17.78,0,0,1,194,528.5Z" transform="translate(-68.63 -31.11)"></path><rect class="cls-27" x="80.78" y="471.21" width="13.09" height="8.55"></rect><path class="cls-27" d="M124.88,533.93a4.66,4.66,0,1,1-4.66-4.66A4.66,4.66,0,0,1,124.88,533.93Z" transform="translate(-68.63 -31.11)"></path><path class="cls-23" d="M51.62,494.85h.62a6.07,6.07,0,0,1,6.07,6.07v1.48a0,0,0,0,1,0,0H45.55a0,0,0,0,1,0,0v-1.48A6.07,6.07,0,0,1,51.62,494.85Z"></path><path class="cls-27" d="M196.14,533.93a4.66,4.66,0,1,1-4.66-4.66A4.66,4.66,0,0,1,196.14,533.93Z" transform="translate(-68.63 -31.11)"></path><path class="cls-23" d="M122.89,494.85h.62a6.07,6.07,0,0,1,6.07,6.07v1.48a0,0,0,0,1,0,0H116.82a0,0,0,0,1,0,0v-1.48A6.07,6.07,0,0,1,122.89,494.85Z"></path><rect class="cls-27" x="83.88" y="481.36" width="7.43" height="16.83"></rect><path class="cls-27" d="M161,533.93a4.66,4.66,0,1,1-4.66-4.66A4.66,4.66,0,0,1,161,533.93Z" transform="translate(-68.63 -31.11)"></path><path class="cls-23" d="M87.79,494.85h.62a6.07,6.07,0,0,1,6.07,6.07v1.48a0,0,0,0,1,0,0H81.72a0,0,0,0,1,0,0v-1.48A6.07,6.07,0,0,1,87.79,494.85Z"></path><path class="cls-35" d="M215.22,533.72,250,532.41a3.75,3.75,0,0,0,3.61-3.89h0a3.75,3.75,0,0,0-2.65-3.45l-17.42-5.35-18.78,1.16Z" transform="translate(-68.63 -31.11)"></path><path class="cls-27" d="M215.46,531.57H253.2a0,0,0,0,1,0,0v0a2.5,2.5,0,0,1-2.5,2.5H215.46a0,0,0,0,1,0,0v-2.52A0,0,0,0,1,215.46,531.57Z" transform="matrix(1, -0.04, 0.04, 1, -92.35, -20.04)"></path><path class="cls-36" d="M188.19,422.21a15.71,15.71,0,0,1-15.71,15.7h-26.4a16,16,0,0,1-2.31-.17,15.4,15.4,0,0,1-5.39-1.85,9.19,9.19,0,0,1-.85-.52,15.69,15.69,0,0,1-7.15-13.16l-1-7.3,60.95-9.05Z" transform="translate(-68.63 -31.11)"></path><line class="cls-37" x1="164.69" y1="493.7" x2="168.58" y2="489.16"></line><line class="cls-37" x1="167.74" y1="494.83" x2="171.63" y2="490.28"></line><line class="cls-37" x1="170.68" y1="496.39" x2="175.05" y2="491.24"></line><g class="cls-38"><path class="cls-36" d="M213.36,521.39c2-33.93,1.48-65.3-1.17-71.65-2.71-3.94-19-13.65-35-20.84l9-20.1c11.25,5,38.17,18.06,45.1,29.93,2.92,5,5.73,14.81,4.36,49.41-.72,18.12-1.6,32.31-1.6,32.31Z" transform="translate(-68.63 -31.11)"></path><path class="cls-39" d="M174.18,417.58S215.1,432.34,219.84,444s3.06,77.12,3.06,77.12l-13.64.56L163.88,415.36Z" transform="translate(-68.63 -31.11)"></path></g><path class="cls-35" d="M171.79,527.74l32.53,12.32a3.76,3.76,0,0,0,4.85-2.18h0a3.78,3.78,0,0,0-1.1-4.21L194.1,522l-17.75-6.24Z" transform="translate(-68.63 -31.11)"></path><path class="cls-27" d="M170.87,533.09h37.74a0,0,0,0,1,0,0v0a2.5,2.5,0,0,1-2.5,2.5H170.87a0,0,0,0,1,0,0v-2.52A0,0,0,0,1,170.87,533.09Z" transform="translate(128.83 -63.75) rotate(20.33)"></path><path class="cls-36" d="M198.59,487c-.46,18-2.05,34.39-2.11,35.08l-11.66-1.14-10.26-1c3-30.63,2.84-61.44-.26-68-3.59-3.39-17.55-9.55-30.53-14.19-1.83-.66-3.64-1.27-5.39-1.85l-.93-.31.08-.21S148.29,416.47,171,423c4.77,1.38,8.69,5.91,13.63,9.24a34.17,34.17,0,0,1,6.32,5.22C195.44,442.4,199.5,451.85,198.59,487Z" transform="translate(-68.63 -31.11)"></path><line class="cls-37" x1="122.18" y1="494.35" x2="127.61" y2="491.85"></line><line class="cls-37" x1="124.48" y1="496.65" x2="129.91" y2="494.14"></line><line class="cls-37" x1="126.5" y1="499.29" x2="132.62" y2="496.44"></line><path class="cls-39" d="M184.82,520.93l-10.26-1c3-30.63,2.84-61.44-.26-68-3.59-3.39-17.55-9.55-30.53-14.19a15.4,15.4,0,0,1-5.39-1.85l-.93-.31.08-.21a15.69,15.69,0,0,1-7.15-13.16l.48-8.38,9.07,1.25c-.22.65-1.44,7.05.8,10.89a5.4,5.4,0,0,0,2.83,2.47c3.55,1.35,17.05,4.66,27.8,9.47,6.95,3.12,12.75,6.87,14,11.13C188.14,459.07,185.28,512.74,184.82,520.93Z" transform="translate(-68.63 -31.11)"></path><rect class="cls-12" x="85.99" y="243.73" width="18.03" height="33.42" rx="6.87"></rect><path class="cls-40" d="M199.72,257.4c0,.43-.07.85-.11,1.27a29.06,29.06,0,0,1-1.31,5.85,28.39,28.39,0,0,1-28.9,19.23c-7.08-.5-13.2,2.26-17.86-2.39a27.62,27.62,0,0,1-4-4.93c-.45-.71-.86-1.42-1.24-2.15-2.32-4.48-3.66-15.46-3.29-20.86a28.41,28.41,0,0,1,29-26.41l1.29.06a28.35,28.35,0,0,1,22.27,13.56h0a28.84,28.84,0,0,1,3.12,7.22A28.52,28.52,0,0,1,199.72,257.4Z" transform="translate(-68.63 -31.11)"></path><path class="cls-41" d="M161.89,263.24a4.74,4.74,0,0,1-.43,1.75,5.43,5.43,0,0,1-1.25,1.83,5.12,5.12,0,0,1-3.67,1.4l-3-.16-2.31-.11.34-6.87h0l.06-1.27.05-1,0-.91v-.23h0l5.32.27a5.12,5.12,0,0,1,3.41,1.55,5,5,0,0,1,1.17,1.94A4.66,4.66,0,0,1,161.89,263.24Z" transform="translate(-68.63 -31.11)"></path><path class="cls-42" d="M198.51,260.32l-.56,11.1-.09,1.66a22.8,22.8,0,0,1-.39,3.23,23.3,23.3,0,0,1-20,18.56,7,7,0,0,1-.91.09,22,22,0,0,1-3.25.07,23.54,23.54,0,0,1-8.83-2.21h0a23.29,23.29,0,0,1-13.38-20.23c0-.27,0-.53,0-.79s0-.63,0-1v-.16l0-.75.11-2,.33-6.8v-.07h0l.07-1.26.05-1,0-.91v-.23a18.53,18.53,0,0,1,.87-4.54,24.54,24.54,0,0,1,1.12-3c.06-.16.12-.29.18-.43a19.36,19.36,0,0,1,1.21-2.3v0a23.53,23.53,0,0,1,6.62-7.11c.53-.38,1.09-.74,1.64-1.07A23.77,23.77,0,0,1,193,243.64a22.63,22.63,0,0,1,4.62,8.2,17,17,0,0,1,.8,3.6A27.24,27.24,0,0,1,198.51,260.32Z" transform="translate(-68.63 -31.11)"></path><path class="cls-41" d="M153.88,261.17l-.35,6.89-.24,4.65-1.83-.09a2.34,2.34,0,0,1-.39,0,6,6,0,0,1-5.2-6.2,5.53,5.53,0,0,1,1.93-3.91,5.66,5.66,0,0,1,3.76-1.39h0a1.85,1.85,0,0,1,.47,0Z" transform="translate(-68.63 -31.11)"></path><path class="cls-12" d="M172.65,295a15.53,15.53,0,0,1-8.19-2.13h0a23.29,23.29,0,0,1-13.38-20.23,6,6,0,0,1-5.2-6.2,5.53,5.53,0,0,1,1.93-3.91,5.66,5.66,0,0,1,3.76-1.39h0l.07-1.26.05-1,0-.91v-.23h0a18.53,18.53,0,0,1,.87-4.54c3.16-1.77,6.37-2.1,8.2,1.85,0,0-.18,1.79-.34,4.51-.13,2-.24,4.59-.26,7.31-.05,5.58.28,11.82,1.72,15.6C165,290.5,172.65,295,172.65,295Z" transform="translate(-68.63 -31.11)"></path><rect class="cls-40" x="88.66" y="204.13" width="46.64" height="8.99" rx="4.45"></rect><path class="cls-40" d="M207.63,247.88a5.93,5.93,0,0,1-5.82,7H167.48a8.91,8.91,0,0,0-8.91,8.91v5.55a3.36,3.36,0,0,1-3.35,3.35h-.8a3.35,3.35,0,0,1-3.35-3.35V252.6a2.34,2.34,0,0,1,0-.38,5.8,5.8,0,0,1-1-3.28A5.92,5.92,0,0,1,156,243h45.56A6.1,6.1,0,0,1,207.63,247.88Z" transform="translate(-68.63 -31.11)"></path><path class="cls-40" d="M193.69,410.71l-43.33,6.61a37.76,37.76,0,0,0-14.15,5.18l-6.07,3.73-1.44-95.82c0-.47,0-.94,0-1.4a27.62,27.62,0,0,1,22.7-25.72,28,28,0,0,1,4.78-.41h9.31a27.54,27.54,0,0,1,27.53,27.53l.32,41.44.15,18.38Z" transform="translate(-68.63 -31.11)"></path><path class="cls-14" d="M188.23,314.84a27.45,27.45,0,0,0-11.81-2.66h-9.31a27.86,27.86,0,0,0-4.78.41c-3.55.63-8,1.38-11,3.2-4.76,2.95-4.69,6.28-3.17,11.27.13.44-8.61,12.17-8.61,12.65l.21,20.54-10.65-20.64-.45-9.2c0-.47,0-.94,0-1.4a27.62,27.62,0,0,1,22.7-25.72,28,28,0,0,1,4.78-.41h9.31A27.5,27.5,0,0,1,188.23,314.84Z" transform="translate(-68.63 -31.11)"></path><polygon class="cls-43" points="101.13 309.42 97.9 328.18 83.14 270.1 107.78 270.1 101.13 309.42"></polygon><polygon class="cls-13" points="108.22 277.01 96.66 270.22 83.16 277.01 83.16 268.66 108.22 268.66 108.22 277.01"></polygon><path class="cls-12" d="M206.31,377.47,220,375.29a1.83,1.83,0,0,0,1.51-2.08v0a1.82,1.82,0,0,0-2.07-1.51l-13.65,2.19a1.81,1.81,0,0,0-1.5,2.07v0A1.82,1.82,0,0,0,206.31,377.47Z" transform="translate(-68.63 -31.11)"></path><rect class="cls-12" x="208.47" y="376.64" width="14.72" height="3.66" rx="1.81" transform="translate(420.07 687) rotate(170.92)"></rect><path class="cls-12" d="M208.12,385.92l13-2.07a1.82,1.82,0,0,0,1.5-2.08v0a1.82,1.82,0,0,0-2.07-1.51l-13,2.08a1.8,1.8,0,0,0-1.5,2.07v0A1.82,1.82,0,0,0,208.12,385.92Z" transform="translate(-68.63 -31.11)"></path><path class="cls-12" d="M212.2,374c-.14,0-1.81,0-3.62,0a19.68,19.68,0,0,0-9,2l-5.37,2.64s3.08,9.12,3.5,9.2c10.35,1.87,13.9-2.83,13.9-2.83Z" transform="translate(-68.63 -31.11)"></path><rect class="cls-13" x="130.97" y="342.8" width="4.59" height="14.93"></rect><path class="cls-14" d="M199.88,390.16l-6.35.07-23.76.23h-.27a27.91,27.91,0,0,1-25.29-16.16l-.22-.49L128.74,329a27.44,27.44,0,0,1,12.9-21.93L161.09,367a9.47,9.47,0,0,0,8.5,5.09l23.79-.23,6.32-.07Z" transform="translate(-68.63 -31.11)"></path><rect class="cls-27" x="268.34" y="345.55" width="36.09" height="10.76"></rect><rect class="cls-44" x="258.21" y="345.55" width="36.09" height="10.76"></rect><path class="cls-45" d="M299.85,383.31l5.51.16a5.86,5.86,0,0,1,5.7,5.73l.78,33.3a15.78,15.78,0,0,0,15.3,15.4h0a15.78,15.78,0,0,0,16.25-16.21l-1-34.26a5.87,5.87,0,0,1,5.54-6h0" transform="translate(-68.63 -31.11)"></path><rect class="cls-27" x="276.18" y="349.03" width="9.81" height="2.85"></rect><rect class="cls-13" x="264.54" y="347.84" width="9.81" height="2.85"></rect><path class="cls-46" d="M288.91,383.34h0a11.87,11.87,0,0,1,10.75,11l.08,1.31a10.31,10.31,0,0,0,10.42,9.6l12-.17a13.06,13.06,0,0,0,12.88-12.79l.09-4.64a7.43,7.43,0,0,1,6.3-7.2h0" transform="translate(-68.63 -31.11)"></path><path class="cls-47" d="M450.92,484.56h48.65a0,0,0,0,1,0,0v22.35a0,0,0,0,1,0,0H430.81a0,0,0,0,1,0,0v-2.24A20.11,20.11,0,0,1,450.92,484.56Z"></path><path class="cls-48" d="M450.92,480.55h48.65a0,0,0,0,1,0,0V502.9a0,0,0,0,1,0,0H430.81a0,0,0,0,1,0,0v-2.24A20.11,20.11,0,0,1,450.92,480.55Z"></path><path class="cls-49" d="M426.48,241.33s-26.69-10.26-54.76,5.64c0,0,18.37-35.36,9.43-69.76" transform="translate(-68.63 -31.11)"></path><rect class="cls-50" x="399.79" y="216.18" width="6.3" height="70.4" transform="translate(615.51 -162.45) rotate(94.35)"></rect><rect class="cls-50" x="398.44" y="233.9" width="6.3" height="70.4" transform="translate(631.73 -142.05) rotate(94.35)"></rect><rect class="cls-50" x="370.16" y="176.47" width="6.3" height="70.4" transform="translate(646.3 440.3) rotate(-172.3)"></rect><rect class="cls-50" x="356.72" y="173.36" width="6.3" height="70.4" transform="translate(619.94 432.32) rotate(-172.31)"></rect><path class="cls-51" d="M590.58,296.17a68,68,0,0,0,30,7.34s-17.77,28.81-18.34,66.05" transform="translate(-68.63 -31.11)"></path><path class="cls-51" d="M528.71,237.19s10.7-21.39,10.7-65.71-44.32-36.67-44.32-36.67" transform="translate(-68.63 -31.11)"></path><path class="cls-51" d="M519.16,242.16s10.7-21.4,10.7-65.71-44.32-36.67-44.32-36.67" transform="translate(-68.63 -31.11)"></path><rect class="cls-50" x="592.72" y="248.79" width="6.3" height="70.4" transform="translate(-44.69 582.44) rotate(-55.43)"></rect><rect class="cls-50" x="602.8" y="234.16" width="6.3" height="70.4" transform="translate(-28.29 584.4) rotate(-55.43)"></rect><rect class="cls-50" x="614.63" y="304.36" width="6.3" height="70.4" transform="matrix(0.97, 0.25, -0.25, 0.97, 38.02, -177.04)"></rect><rect class="cls-50" x="627.59" y="309.09" width="6.3" height="70.4" transform="translate(39.66 -180.19) rotate(14.73)"></rect><rect class="cls-52" x="370.07" y="194.04" width="142.11" height="91.55" rx="10.4"></rect><rect class="cls-53" x="353.45" y="194.05" width="142.1" height="91.54" rx="10.51"></rect><rect class="cls-54" x="372.93" y="211.23" width="98.56" height="7.45" rx="3.69"></rect><rect class="cls-54" x="372.93" y="224.98" width="98.56" height="7.45" rx="3.69"></rect><rect class="cls-13" x="374.94" y="239.6" width="6.88" height="6.02" rx="2.98"></rect><rect class="cls-55" x="387.54" y="239.6" width="6.88" height="6.02" rx="2.98"></rect><rect class="cls-55" x="399.58" y="239.6" width="6.88" height="6.02" rx="2.98"></rect><rect class="cls-56" x="458.88" y="239.6" width="6.88" height="6.02" rx="2.98"></rect><rect class="cls-56" x="446.85" y="239.6" width="6.88" height="6.02" rx="2.98"></rect><rect class="cls-13" x="374.08" y="250.91" width="6.88" height="6.02" rx="2.98"></rect><rect class="cls-50" x="537.8" y="318.11" width="6.3" height="100.7" transform="translate(1022.12 692.47) rotate(178.6)"></rect><rect class="cls-50" x="520.04" y="318.55" width="6.3" height="100.7" transform="translate(986.62 693.77) rotate(178.6)"></rect><path class="cls-57" d="M545.67,328.3s21.77,48.71,1.44,101.85c0,0,17.47,30.52,18,67.76" transform="translate(-68.63 -31.11)"></path><rect class="cls-50" x="546.8" y="431" width="6.3" height="70.4" transform="translate(1131.74 746.12) rotate(165.27)"></rect><rect class="cls-50" x="533.83" y="435.73" width="6.3" height="70.4" transform="matrix(-0.97, 0.25, -0.25, -0.97, 1107.44, 758.71)"></rect><path class="cls-58" d="M560.17,511.55H528.76a16,16,0,0,1-.48-6.78,20.54,20.54,0,0,1,.87-3.69,14.52,14.52,0,0,1,4.45-6.65,16.74,16.74,0,0,1,11-3.55h9.43S560.36,510.84,560.17,511.55Z" transform="translate(-68.63 -31.11)"></path><path class="cls-59" d="M544.28,494.43v6.65H529.15a14.52,14.52,0,0,1,4.45-6.65Z" transform="translate(-68.63 -31.11)"></path><path class="cls-60" d="M542.84,408.89v38l-10.64.36a19.2,19.2,0,1,1,.42-38.39Z" transform="translate(-68.63 -31.11)"></path><path class="cls-61" d="M531.88,414.29V421h-17.3a19.23,19.23,0,0,1,4.48-6.66Z" transform="translate(-68.63 -31.11)"></path><circle class="cls-48" cx="540.22" cy="428.08" r="19.2" transform="translate(-144.22 706.58) rotate(-65.09)"></circle><path class="cls-62" d="M540.23,438.49a10.41,10.41,0,1,1,2.71-.36,10.42,10.42,0,0,1-2.71.36Z" transform="translate(-68.63 -31.11)"></path><circle class="cls-48" cx="553.58" cy="507.05" r="16.33" transform="translate(-219.73 734.73) rotate(-62.65)"></circle><path class="cls-62" d="M553.59,515.45a7.81,7.81,0,0,1-1.18-.09,8.4,8.4,0,0,1,1.17-16.71,9.36,9.36,0,0,1,1.18.08,8.4,8.4,0,0,1-1.17,16.72Z" transform="translate(-68.63 -31.11)"></path><path class="cls-47" d="M378.33,484.56H427a0,0,0,0,1,0,0v22.35a0,0,0,0,1,0,0H358.22a0,0,0,0,1,0,0v-2.24A20.11,20.11,0,0,1,378.33,484.56Z"></path><path class="cls-48" d="M378.33,480.55H427a0,0,0,0,1,0,0V502.9a0,0,0,0,1,0,0H358.22a0,0,0,0,1,0,0v-2.24A20.11,20.11,0,0,1,378.33,480.55Z"></path><rect class="cls-50" x="465.21" y="318.11" width="6.3" height="100.7" transform="translate(876.98 694.25) rotate(178.6)"></rect><rect class="cls-50" x="447.46" y="318.55" width="6.3" height="100.7" transform="translate(841.48 695.55) rotate(178.6)"></rect><path class="cls-63" d="M473.09,328.3s21.77,48.71,1.44,101.85c0,0,17.47,30.52,18,67.76" transform="translate(-68.63 -31.11)"></path><rect class="cls-50" x="474.22" y="431" width="6.3" height="70.4" transform="translate(988.96 764.58) rotate(165.27)"></rect><rect class="cls-50" x="461.25" y="435.73" width="6.3" height="70.4" transform="matrix(-0.97, 0.25, -0.25, -0.97, 964.66, 777.16)"></rect><path class="cls-58" d="M481.94,490.88s6.3,20,6.11,20.67h-31.4a15.87,15.87,0,0,1-.48-6.78c1.26-8.94,7.32-13.89,16.34-13.89Z" transform="translate(-68.63 -31.11)"></path><path class="cls-59" d="M472,494.43v6.65H456.88a14.58,14.58,0,0,1,4.44-6.65Z" transform="translate(-68.63 -31.11)"></path><circle class="cls-48" cx="481" cy="507.05" r="16.33" transform="matrix(0.27, -0.96, 0.96, 0.27, -205.66, 802.27)"></circle><path class="cls-62" d="M481,515.45a8,8,0,0,1-1.19-.09A8.4,8.4,0,0,1,481,498.65a9.39,9.39,0,0,1,1.19.08A8.4,8.4,0,0,1,481,515.45Z" transform="translate(-68.63 -31.11)"></path><path class="cls-60" d="M628.06,284v34.72l9.71.33a17.53,17.53,0,0,0-.37-35Z" transform="translate(-68.63 -31.11)"></path><path class="cls-64" d="M635.86,288.9V295h18a17.47,17.47,0,0,0-4.1-6.08Z" transform="translate(-68.63 -31.11)"></path><circle class="cls-48" cx="630.45" cy="301.49" r="17.53" transform="translate(-13.35 667.29) rotate(-60.17)"></circle><path class="cls-65" d="M630.45,311a9.51,9.51,0,1,0-2.48-.33,9.86,9.86,0,0,0,2.47.33Z" transform="translate(-68.63 -31.11)"></path><path class="cls-60" d="M607.25,364.23v30.46l8.51.29a15.38,15.38,0,0,0,14.12-21.09,15.42,15.42,0,0,0-14.44-9.66Z" transform="translate(-68.63 -31.11)"></path><path class="cls-61" d="M614.08,368.56v5.33h15.8a15.21,15.21,0,0,0-3.59-5.33Z" transform="translate(-68.63 -31.11)"></path><circle class="cls-48" cx="609.34" cy="379.6" r="15.38" transform="translate(44.14 866.95) rotate(-78.16)"></circle><path class="cls-65" d="M609.34,387.94a8.34,8.34,0,0,0,2.18-16.39,8.54,8.54,0,0,0-2.18-.29,8.34,8.34,0,0,0-2.18,16.39,8.54,8.54,0,0,0,2.18.29Z" transform="translate(-68.63 -31.11)"></path><path class="cls-51" d="M570.47,280.83a65.54,65.54,0,0,0,20.11,15.34" transform="translate(-68.63 -31.11)"></path><path class="cls-66" d="M554.84,316.27v3.05a16.33,16.33,0,0,1-.34,3.24,15.29,15.29,0,0,1-14.93,12H523.7a15.29,15.29,0,0,1-14.94-12,16.33,16.33,0,0,1-.33-3.24v-3.05Z" transform="translate(-68.63 -31.11)"></path><path class="cls-52" d="M554.84,316.27v3.05a16.33,16.33,0,0,1-.34,3.24H508.76a16.33,16.33,0,0,1-.33-3.24v-3.05Z" transform="translate(-68.63 -31.11)"></path><path class="cls-67" d="M564.78,254.88h25a10.83,10.83,0,0,1,10.83,10.83v5a0,0,0,0,1,0,0H554a0,0,0,0,1,0,0v-5A10.83,10.83,0,0,1,564.78,254.88Z" transform="translate(771.45 -345.61) rotate(90)"></path><path class="cls-66" d="M482.25,316.27v3.05a15.61,15.61,0,0,1-.34,3.24,15.26,15.26,0,0,1-14.93,12H451.12a15.28,15.28,0,0,1-14.94-12,15.61,15.61,0,0,1-.34-3.24v-3.05Z" transform="translate(-68.63 -31.11)"></path><path class="cls-52" d="M435.84,316.27h46.41v3.05a15.61,15.61,0,0,1-.34,3.24H436.18a15.61,15.61,0,0,1-.34-3.24Z" transform="translate(-68.63 -31.11)"></path><path class="cls-68" d="M440.19,84.6h.14A6.71,6.71,0,0,1,447,91.31v9.33a0,0,0,0,1,0,0H433.48a0,0,0,0,1,0,0V91.31A6.71,6.71,0,0,1,440.19,84.6Z"></path><path class="cls-69" d="M419.57,80.14h.18a8.58,8.58,0,0,1,8.58,8.58v11.93a0,0,0,0,1,0,0H411a0,0,0,0,1,0,0V88.71A8.58,8.58,0,0,1,419.57,80.14Z"></path><rect class="cls-52" x="390.26" y="96.8" width="88.24" height="61.89" rx="13.61"></rect><path class="cls-70" d="M532.67,141.67v34.38a13.79,13.79,0,0,1-13.75,13.75H458.18a13.28,13.28,0,0,1-3.36-.42,13.8,13.8,0,0,1-10.4-13.33V141.67a13.8,13.8,0,0,1,13.76-13.75h60.74A13.79,13.79,0,0,1,532.67,141.67Z" transform="translate(-68.63 -31.11)"></path><rect class="cls-48" x="391.65" y="110.38" width="53.86" height="33.81" rx="1.58"></rect><path class="cls-71" d="M493.9,163.45a2.32,2.32,0,0,1-2.32,2.32h-8.74a2.32,2.32,0,0,1-2.32-2.32" transform="translate(-68.63 -31.11)"></path><rect class="cls-72" x="401.42" y="120.7" width="10.63" height="3.44" rx="1.7"></rect><rect class="cls-72" x="424.09" y="120.7" width="11.65" height="3.44" rx="1.7"></rect><path class="cls-60" d="M467.56,511.66H447.17A20.32,20.32,0,0,0,426.85,532v2h20.39v-2A20.32,20.32,0,0,1,467.56,511.66Z" transform="translate(-68.63 -31.11)"></path><path class="cls-60" d="M540.44,511.66H520.05A20.32,20.32,0,0,0,499.73,532v2h20.39v-2A20.32,20.32,0,0,1,540.44,511.66Z" transform="translate(-68.63 -31.11)"></path><path class="cls-60" d="M470,408.89v38l-10.64.36a19.2,19.2,0,0,1,.41-38.39Z" transform="translate(-68.63 -31.11)"></path><path class="cls-61" d="M461.42,414.29V421H441.7a19.1,19.1,0,0,1,4.48-6.66Z" transform="translate(-68.63 -31.11)"></path><circle class="cls-48" cx="467.34" cy="428.08" r="19.2" transform="translate(-132.01 50.56) rotate(-9.36)"></circle><path class="cls-65" d="M467.35,438.49a10.41,10.41,0,1,1,2.71-.36,10.42,10.42,0,0,1-2.71.36Z" transform="translate(-68.63 -31.11)"></path><path class="cls-73" d="M717.32,505.74c.09,1.31.61,20,.61,20l-13.77.26.31-23.4Z" transform="translate(-68.63 -31.11)"></path><path class="cls-40" d="M723.66,378.83c0,.16,0,1,0,2.51-.67,21.75-4.47,140.33-4.47,140.33l-17.75-.61-4.7-138.82Z" transform="translate(-68.63 -31.11)"></path><path class="cls-35" d="M719.2,537.16l-36.31.26a3.94,3.94,0,0,1-3.95-3.92h0a4,4,0,0,1,2.61-3.76l17.92-6.45,19.65.34Z" transform="translate(-68.63 -31.11)"></path><path class="cls-40" d="M679.54,535.79h36.77a2.62,2.62,0,0,1,2.62,2.62v0a0,0,0,0,1,0,0h-39.4a0,0,0,0,1,0,0v-2.66A0,0,0,0,1,679.54,535.79Z" transform="translate(1329.72 1043.28) rotate(-179.99)"></path><line class="cls-74" x1="631.29" y1="497.53" x2="627.02" y2="492.93"></line><line class="cls-74" x1="628.16" y1="498.86" x2="623.9" y2="494.26"></line><line class="cls-74" x1="625.17" y1="500.64" x2="620.37" y2="495.42"></line><path class="cls-73" d="M748.48,505.52c.07,1.3.26,19.86.26,19.86l-13.77,0,.72-23.26Z" transform="translate(-68.63 -31.11)"></path><path class="cls-40" d="M757.05,379.48c0,.16,0,1-.08,2.49-1.06,21.6-6.94,139.41-6.94,139.41l-17.74-.92L730,382.39Z" transform="translate(-68.63 -31.11)"></path><path class="cls-35" d="M750.09,536.85l-36.28,1.41a3.92,3.92,0,0,1-4.07-3.78h0a3.92,3.92,0,0,1,2.48-3.81l17.71-7,19.64-.28Z" transform="translate(-68.63 -31.11)"></path><path class="cls-40" d="M710.43,536.12h36.79a2.61,2.61,0,0,1,2.61,2.61v0a0,0,0,0,1,0,0h-39.4a0,0,0,0,1,0,0v-2.64A0,0,0,0,1,710.43,536.12Z" transform="translate(1408.11 1020.63) rotate(178.21)"></path><line class="cls-75" x1="661.91" y1="497.88" x2="657.51" y2="493.45"></line><line class="cls-75" x1="658.83" y1="499.3" x2="654.43" y2="494.87"></line><line class="cls-75" x1="655.9" y1="501.16" x2="650.94" y2="496.13"></line><path class="cls-40" d="M695.75,375.69a16.46,16.46,0,0,0,14.75,17.95l27.43,2.66a16.48,16.48,0,0,0,8.2-1.33,10.22,10.22,0,0,0,.94-.46,16.41,16.41,0,0,0,8.75-13l.34-8.78-59-6.24Z" transform="translate(-68.63 -31.11)"></path><path class="cls-76" d="M727.86,272.08l2.52.45a8.16,8.16,0,0,0,9.43-6.61l4.81-27.24a8.17,8.17,0,0,0-6.58-9.45l-2.53-.45a8.16,8.16,0,0,0-9.42,6.61l-4.82,27.24A8.17,8.17,0,0,0,727.86,272.08Z" transform="translate(-68.63 -31.11)"></path><path class="cls-40" d="M702.86,204.42c-.05.44-.08.88-.11,1.32a29.67,29.67,0,0,0,26.48,31.39c7.36.78,13.15,4.74,18.78.8a29.55,29.55,0,0,0,5-4.36c.58-.65,1.14-1.3,1.66-2,3.2-4.2,6.59-15.27,7.18-20.9a29.74,29.74,0,0,0-25-32.55c-.44-.06-.89-.12-1.34-.16a29.56,29.56,0,0,0-25.36,9.9h0a30.1,30.1,0,0,0-4.52,6.88A29.63,29.63,0,0,0,702.86,204.42Z" transform="translate(-68.63 -31.11)"></path><path class="cls-77" d="M740.68,217.35a5,5,0,0,0,.12,1.89,5.68,5.68,0,0,0,1,2.11,5.4,5.4,0,0,0,3.52,2.12l3.12.39,2.4.3.9-7.14h0l.17-1.32.12-1,.12-.94,0-.24h0l-5.52-.69a5.3,5.3,0,0,0-3.78,1,5.46,5.46,0,0,0-1.56,1.78A5,5,0,0,0,740.68,217.35Z" transform="translate(-68.63 -31.11)"></path><path class="cls-78" d="M703.57,207.65l-1.44,11.55-.22,1.73a22.8,22.8,0,0,0-.18,3.39,24.41,24.41,0,0,0,17.19,22.81c.3.1.61.18.92.26a23.73,23.73,0,0,0,6.61.84,23.53,23.53,0,0,0,6.19-.85h0A24.37,24.37,0,0,0,750.1,229c.06-.28.12-.54.16-.82s.11-.65.15-1l0-.17.1-.78.25-2.06.9-7.07V217h0l.16-1.31.12-1,.12-.94,0-.24a19.56,19.56,0,0,0-.06-4.84,27,27,0,0,0-.61-3.27c0-.17-.07-.32-.11-.48a23.59,23.59,0,0,0-.82-2.59h0a24.51,24.51,0,0,0-5.51-8.55c-.48-.49-1-1-1.49-1.4a24.75,24.75,0,0,0-31.21-.88,23.42,23.42,0,0,0-6.24,7.61,17.6,17.6,0,0,0-1.48,3.56A28.69,28.69,0,0,0,703.57,207.65Z" transform="translate(-68.63 -31.11)"></path><path class="cls-77" d="M749.29,216.69l-.9,7.17-.59,4.84,1.89.24.41,0a6.27,6.27,0,0,0,6.47-5.45,5.74,5.74,0,0,0-1.27-4.38,5.86,5.86,0,0,0-3.61-2.12h0a2.11,2.11,0,0,0-.49-.09Z" transform="translate(-68.63 -31.11)"></path><path class="cls-76" d="M723.84,248.08a16.16,16.16,0,0,0,8.8-.7h0A24.37,24.37,0,0,0,750.1,229a6.27,6.27,0,0,0,6.47-5.45,5.74,5.74,0,0,0-1.27-4.38,5.86,5.86,0,0,0-3.61-2.12h0l.16-1.31.12-1,.12-.94,0-.24h0a19.56,19.56,0,0,0-.06-4.84c-2.93-2.4-6.17-3.33-8.77.41,0,0-.14,1.87-.47,4.71-.24,2.12-.59,4.78-1.07,7.58-1,5.76-2.44,12.13-4.61,15.77C732.53,244.89,723.84,248.08,723.84,248.08Z" transform="translate(-68.63 -31.11)"></path><path class="cls-79" d="M754.63,388.47s-24.12-2.63-23.83-3.5.29-11.08.29-11.08-19.18-3.21-19.18-2-1.74,10.2-1.74,10.2l-14.24-2.62.29-15.16,61.9,6.41Z" transform="translate(-68.63 -31.11)"></path><polygon class="cls-80" points="639.58 335.07 668.35 337.95 678.18 220.12 669.31 219.63 661.22 237.73 659.07 219.57 651.57 218.91 639.58 335.07"></polygon><path class="cls-81" d="M734.8,381.8a62.27,62.27,0,0,0,7.92,1.88c1.71.3,3.67.59,5.81.82a82.1,82.1,0,0,0,10,.46,2.22,2.22,0,0,0,.63-.14L765,307.5c.08-.61.14-1.21.21-1.78,1.3-11.82.89-18.53,1-28.71,0-1.47.06-3,.12-4.64a9.88,9.88,0,0,0-.29-2.75c-1.14-4.54-5.42-7.7-10.1-10.06a87.28,87.28,0,0,0-8.28-3.5c-1.17-.44-.46-.06-1.72-.24Z" transform="translate(-68.63 -31.11)"></path><path class="cls-81" d="M692.44,377.1l4.76.44,10.94,1s12.74-123.45,11.62-123a26.51,26.51,0,0,0-6,3.28,30.66,30.66,0,0,0-10.39,12.72,22.22,22.22,0,0,0-1.45,4.8.65.65,0,0,0,0,.19C700,287.07,692.44,377.1,692.44,377.1Z" transform="translate(-68.63 -31.11)"></path><ellipse class="cls-82" cx="728.67" cy="280.27" rx="1.44" ry="1.44" transform="translate(-68.93 -30.32) rotate(-0.06)"></ellipse><path class="cls-82" d="M726,294.63a1.44,1.44,0,1,0,1.56-1.31A1.44,1.44,0,0,0,726,294.63Z" transform="translate(-68.63 -31.11)"></path><path class="cls-82" d="M724.68,309.12a1.44,1.44,0,1,0,1.56-1.31A1.44,1.44,0,0,0,724.68,309.12Z" transform="translate(-68.63 -31.11)"></path><path class="cls-82" d="M723.4,323.62a1.44,1.44,0,1,0,1.56-1.31A1.44,1.44,0,0,0,723.4,323.62Z" transform="translate(-68.63 -31.11)"></path><path class="cls-82" d="M722.13,338.11a1.44,1.44,0,1,0,2.86.25,1.44,1.44,0,1,0-2.86-.25Z" transform="translate(-68.63 -31.11)"></path><polygon class="cls-13" points="669.31 219.63 670.51 228.05 677.46 228.05 678.18 220.12 669.31 219.63"></polygon><polygon class="cls-13" points="659.07 219.57 656.42 226.79 649.59 226.43 650.49 218.67 659.07 219.57"></polygon><path class="cls-40" d="M752.8,215.16l-1.18,5.76a2,2,0,0,1-2.73,1.38h0A1.93,1.93,0,0,1,747.8,221c-.59-2.66-2.39-10.32-4.35-14.45-2.4-5.05-8.15-5.29-8.15-5.29l-7.65,1.85a2.88,2.88,0,0,1-3.21-4.17l.31-.57-9.84,2.28c-2.14.49-3.47-1.6-2.82-3.7,0,0,0,0-.05,0-.39.13-5.67.26-10.45.35a2.88,2.88,0,0,1-1.88-5.11c5.92-4.89,15.29-11.6,23.36-12.8C736,177.4,752.56,193,753.76,196.64S752.8,215.16,752.8,215.16Z" transform="translate(-68.63 -31.11)"></path><path class="cls-83" d="M752.45,384.34c3,.32,2.47.68,6.1.62a2.22,2.22,0,0,0,.63-.14l6.22-80.08c.07-.61-3.19-5.44-3.12-6C759.83,307.43,750.31,384.11,752.45,384.34Z" transform="translate(-68.63 -31.11)"></path><path class="cls-78" d="M630.72,279.46l-4.62-14.35a2,2,0,0,1,1.29-2.51h0a2,2,0,0,1,2.53,1.29l4.62,14.35a2,2,0,0,1-1.29,2.51h0A2,2,0,0,1,630.72,279.46Z" transform="translate(-68.63 -31.11)"></path><path class="cls-78" d="M615.17,272.07c.15-.05,7.79-6.91,9.33-5.66a40.74,40.74,0,0,1,7.14,7.61l3.82,5.32s-7,5.69-7.36,6c-4.93,4.32-11.23-7.14-11.23-7.14S611.76,273.22,615.17,272.07Z" transform="translate(-68.63 -31.11)"></path><path class="cls-78" d="M624.08,272.47l-9-12.08a2,2,0,0,1,.4-2.8h0a2,2,0,0,1,2.81.41l9,12.08a2,2,0,0,1-.4,2.8h0A2,2,0,0,1,624.08,272.47Z" transform="translate(-68.63 -31.11)"></path><path class="cls-78" d="M618.35,272.72,611.09,263a2,2,0,0,1,.4-2.8h0a2,2,0,0,1,2.81.4l7.26,9.7a2,2,0,0,1-.4,2.8h0A2,2,0,0,1,618.35,272.72Z" transform="translate(-68.63 -31.11)"></path><path class="cls-78" d="M618.05,280.21l-8.59-11.48a2,2,0,0,1,.4-2.8h0a2,2,0,0,1,2.81.41l8.59,11.48a2,2,0,0,1-.4,2.8h0A2,2,0,0,1,618.05,280.21Z" transform="translate(-68.63 -31.11)"></path><polygon class="cls-80" points="567.11 244.71 568.27 246.26 570.85 249.71 559.75 257.97 557.42 259.7 556.92 259.04 555.83 257.58 553.67 254.7 554.29 254.24 562.12 248.42 565.29 246.06 565.51 245.89 567.11 244.71"></polygon><path class="cls-81" d="M709.46,290.26c-.19.14-14.8,28-38.62,25.54-22.21-2.28-45.21-23.7-46.23-24.6l.94-1.05,1.71-1.93,7.07-8,1-1.13,1.58-1.77,1.07-1.2c.2.17,15.67,18.08,34.83,20.77,11.77,1.66,27.45-19.25,34.26-30.23C708,265.22,709.46,290.26,709.46,290.26Z" transform="translate(-68.63 -31.11)"></path><path class="cls-78" d="M739.21,376.46l11.66-4.15a2.48,2.48,0,0,1,3.24,1.37l.08.22A2.54,2.54,0,0,1,752.5,377l-11.66,4.15a2.48,2.48,0,0,1-3.24-1.37l-.08-.22A2.55,2.55,0,0,1,739.21,376.46Z" transform="translate(-68.63 -31.11)"></path><path class="cls-84" d="M757,409.51a6.41,6.41,0,0,1-1.89,2l-20.48,13.81a6.46,6.46,0,0,1-9-1.74L702,388.44a6.44,6.44,0,0,1,1.74-9l.23-.16,20.25-13.66a6.47,6.47,0,0,1,9,1.74l9.09,13.47,9.06,13.44,5.52,8.19A6.5,6.5,0,0,1,757,409.51Z" transform="translate(-68.63 -31.11)"></path><path class="cls-13" d="M725.15,385.85a2.91,2.91,0,0,1-.3,4.06c-1.16.81-2.91.3-3.91-1.13s-.86-3.25.3-4.06A2.92,2.92,0,0,1,725.15,385.85Z" transform="translate(-68.63 -31.11)"></path><path class="cls-85" d="M751.34,394.31l-8.64,7.48c-1.42,1.31-3.25,1.59-4.06.63a1.73,1.73,0,0,1-.4-1.17,4.27,4.27,0,0,1,1.5-2.95l6-5.2-.53-.77-8.45,7.33c-1.42,1.3-3.25,1.59-4.07.63a1.82,1.82,0,0,1-.39-1.18,4.31,4.31,0,0,1,1.5-2.95l8.83-7.65-.07-.12-.35-.74-7,6c-1.43,1.31-3.26,1.59-4.08.63a1.8,1.8,0,0,1-.38-1.18,4.25,4.25,0,0,1,1.5-2.94l9-7.83.14-.11a6.13,6.13,0,0,1,.83-1.39Z" transform="translate(-68.63 -31.11)"></path><path class="cls-78" d="M761.43,383.86s-6.16,5.48-7.89,7.11c-3.36,3.14-5.82,3.95-8.09,2.17L742,388.3c-1.48-3-2-4.43-.21-6.68l6-7.4a5.35,5.35,0,0,1,7.43-.84l4.54,3.57C762,378.74,763.25,381.61,761.43,383.86Z" transform="translate(-68.63 -31.11)"></path><path class="cls-78" d="M743.59,386.07,735.18,393c-1.32,1.15-3,1.4-3.78.56h0c-.76-.85-.29-2.48,1-3.63l8.4-6.89c1.32-1.15,3-1.4,3.78-.56h0C745.37,383.29,744.91,384.92,743.59,386.07Z" transform="translate(-68.63 -31.11)"></path><path class="cls-78" d="M745,391.33l-8.41,6.88c-1.32,1.16-3,1.41-3.78.56h0c-.76-.84-.29-2.47,1-3.63l8.4-6.88c1.32-1.15,3-1.4,3.78-.56h0C746.79,388.54,746.33,390.18,745,391.33Z" transform="translate(-68.63 -31.11)"></path><path class="cls-78" d="M750.53,393.2l-8.4,6.89c-1.32,1.15-3,1.4-3.78.56h0c-.76-.85-.3-2.48,1-3.63l8.41-6.89c1.32-1.15,3-1.4,3.78-.56h0C752.32,390.42,751.85,392.05,750.53,393.2Z" transform="translate(-68.63 -31.11)"></path><polygon class="cls-80" points="683.27 339.28 684.71 337.98 687.93 335.12 697.12 345.46 699.05 347.63 698.43 348.18 697.08 349.4 694.39 351.79 693.88 351.21 687.4 343.92 684.78 340.98 684.59 340.76 683.27 339.28"></polygon><path class="cls-81" d="M754.54,275.22l7.16-8.61,1.2-1c.15.18,2.19,2.61,5.08,6.58,2.46,3.38,5.55,7.9,8.59,13.1,9.32,15.91,13.68,30.16,13,42.36C788.06,353,769,379,768.19,380.14l-1.13-.85L765,377.75l-8.53-6.35-1.21-.88-1.9-1.42-1.29-1c.15-.21,16.3-22.37,17.43-41.69.86-14.72-6.06-30.07-13.5-39.87C754.91,285.19,755.34,276.17,754.54,275.22Z" transform="translate(-68.63 -31.11)"></path><path class="cls-13" d="M488.18,114.86a1.37,1.37,0,0,0-1.67-1,5.16,5.16,0,0,0-3.26,2.76,1.43,1.43,0,0,0,.49,1.87,1.38,1.38,0,0,0,1.86-.49,2.42,2.42,0,0,1,1.63-1.52A1.38,1.38,0,0,0,488.18,114.86Z" transform="translate(-68.63 -31.11)"></path><path class="cls-13" d="M483,119.84a1.36,1.36,0,0,0,0,2.72A1.36,1.36,0,0,0,483,119.84Z" transform="translate(-68.63 -31.11)"></path><path class="cls-13" d="M506.62,118.71a1.36,1.36,0,0,0,0,2.72A1.36,1.36,0,0,0,506.62,118.71Z" transform="translate(-68.63 -31.11)"></path><path class="cls-60" d="M355.58,237.73v34.73l9.71.33a17.53,17.53,0,0,0-.37-35.06Z" transform="translate(-68.63 -31.11)"></path><path class="cls-61" d="M363.38,242.67v6.08h18a17.38,17.38,0,0,0-4.1-6.08Z" transform="translate(-68.63 -31.11)"></path><circle class="cls-48" cx="357.97" cy="255.25" r="17.53" transform="translate(-148.2 181.1) rotate(-29.87)"></circle><path class="cls-65" d="M358,264.76a9.51,9.51,0,1,0-2.47-.33,9.42,9.42,0,0,0,2.47.33Z" transform="translate(-68.63 -31.11)"></path><path class="cls-60" d="M389.92,170.7a15.37,15.37,0,0,1-15.21,15.54l-8.52-.29,2.39-30.46h5.8a15.3,15.3,0,0,1,10.85,4.33l.12.11a15.35,15.35,0,0,1,4.57,10.77Z" transform="translate(-68.63 -31.11)"></path><circle class="cls-48" cx="368.28" cy="170.86" r="15.38" transform="translate(56.85 465.12) rotate(-78.16)"></circle><path class="cls-65" d="M368.28,179.2a8.34,8.34,0,0,0,2.18-16.39,8.48,8.48,0,0,0-2.18-.29,8.34,8.34,0,0,0,0,16.68Z" transform="translate(-68.63 -31.11)"></path><path class="cls-86" d="M389.92,170.7a15.54,15.54,0,0,1-.26,3c-2.2-2.25-5.54-5.7-5.43-6l1.12-7.79a15.35,15.35,0,0,1,4.57,10.77Z" transform="translate(-68.63 -31.11)"></path><path class="cls-6" d="M402.48,146.09c-1.18,12.52-9.92,19.53-13,21.63-.84.1-6.15-.05-6.15-.05s1.13-9.26-3.35-11.64l9.48-15.59c1.79-1,6-.83,7.75-.67A5.75,5.75,0,0,1,402.48,146.09Z" transform="translate(-68.63 -31.11)"></path><path class="cls-7" d="M396.35,146.09c-1.18,12.52-9.93,19.53-13,21.63a15.43,15.43,0,0,0-9-11l2.33-2.91,1.86-2.33,2-.49.25-2.35,2.61-.74.12-2.69,2.47-.56.15-2.71A5.77,5.77,0,0,1,396.35,146.09Z" transform="translate(-68.63 -31.11)"></path><path class="cls-6" d="M632.72,413.31a29.51,29.51,0,0,0-4.81-24.49c-.76-.38-5.29-1.47-5.29-1.47s-2,9.1-7.07,9.83l2.73,18.19c1.35,1.55,5.63,1.67,7.34,2.11A5.75,5.75,0,0,0,632.72,413.31Z" transform="translate(-68.63 -31.11)"></path><path class="cls-7" d="M627.43,412.19a30.41,30.41,0,0,0-4.81-24.84A15.89,15.89,0,0,1,610.3,395l1.15,3.32,1,2.83,1.74,1.14-.56,2.3,2.22,1.57-.79,2.57,2.12,1.36-.76,2.6A5.76,5.76,0,0,0,627.43,412.19Z" transform="translate(-68.63 -31.11)"></path></svg>